<?xml version="1.0" standalone="no"?>
<!DOCTYPE svg PUBLIC "-//W3C//DTD SVG 20010904//EN"
 "http://www.w3.org/TR/2001/REC-SVG-20010904/DTD/svg10.dtd">
<svg version="1.0" xmlns="http://www.w3.org/2000/svg"
 width="1024.000000pt" height="1024.000000pt" viewBox="0 0 1024.000000 1024.000000"
 preserveAspectRatio="xMidYMid meet">

<g transform="translate(0.000000,1024.000000) scale(0.100000,-0.100000)"
fill="#000000" stroke="none">
<path d="M3995 8190 c-270 -49 -492 -238 -582 -495 -25 -73 -28 -92 -28 -225
0 -80 3 -157 7 -171 7 -25 6 -27 -49 -38 -84 -16 -136 -46 -192 -106 -58 -65
-81 -124 -81 -214 0 -213 215 -362 421 -292 67 23 125 61 159 104 l21 26 46
-35 c109 -83 236 -126 373 -127 232 0 430 108 558 303 51 78 125 250 153 357
32 119 30 280 -5 398 -75 249 -244 421 -491 497 -70 21 -238 31 -310 18z m234
-195 c245 -58 429 -314 407 -564 -4 -42 -12 -80 -17 -86 -15 -15 -110 90 -141
156 -14 30 -34 80 -44 112 -42 136 -138 142 -206 15 -71 -136 -223 -254 -373
-293 -64 -17 -252 -22 -266 -8 -17 18 -28 135 -19 209 19 153 95 277 225 370
135 96 279 125 434 89z m106 -634 c33 -65 126 -165 176 -188 34 -16 38 -21 33
-43 -7 -34 -44 -95 -94 -158 -97 -122 -253 -184 -405 -163 -137 20 -268 114
-348 249 -20 35 -37 65 -37 66 0 2 32 4 71 5 195 5 380 81 504 207 39 39 71
71 72 72 2 1 14 -20 28 -47z m-891 -295 c36 -15 71 -57 81 -97 3 -13 0 -42 -7
-64 -44 -133 -258 -100 -258 39 0 99 92 161 184 122z"/>
<path d="M3580 6511 c-219 -70 -393 -260 -446 -490 -14 -57 -16 -218 -17
-1213 l-2 -1147 21 -28 c16 -21 31 -29 62 -31 52 -4 87 18 102 64 9 26 11 331
9 1152 -3 1198 -4 1157 49 1270 33 72 128 172 199 209 112 59 195 63 346 17
107 -33 206 -32 323 2 157 46 252 26 366 -76 70 -62 123 -142 157 -234 l26
-71 5 -460 5 -460 37 -78 c44 -91 123 -180 195 -217 76 -39 75 -37 45 -79 -15
-20 -41 -53 -57 -74 l-31 -37 -53 20 c-79 31 -169 78 -233 123 l-58 40 0 419
0 419 -25 24 c-33 34 -93 34 -132 1 l-28 -24 -3 -919 c-1 -505 0 -933 3 -952
15 -79 104 -109 158 -53 l27 28 0 402 c0 221 2 402 4 402 2 0 42 -18 89 -39
127 -59 389 -141 447 -141 11 0 26 -23 44 -69 76 -193 218 -312 392 -328 134
-12 260 34 360 132 l64 63 0 -205 c0 -254 7 -273 97 -273 25 0 43 8 64 29 l29
29 0 306 c0 174 -4 316 -10 330 -13 35 -66 66 -113 66 -55 0 -109 -32 -164
-96 -139 -163 -166 -183 -263 -191 -76 -7 -123 10 -183 66 -40 37 -77 87 -77
103 0 2 32 4 71 4 88 2 149 25 189 71 39 44 51 75 52 133 2 145 -105 274 -267
321 -343 99 -398 128 -452 237 l-28 57 -6 440 c-5 406 -7 446 -27 517 -55 201
-193 373 -369 460 -85 43 -88 43 -192 43 -85 0 -121 -5 -181 -24 -95 -31 -168
-30 -279 4 -105 31 -254 34 -341 6z m1773 -1917 c97 -22 122 -36 152 -87 41
-71 41 -71 -97 -64 -104 4 -224 21 -236 32 -4 4 98 135 104 135 3 0 37 -7 77
-16z"/>
<path d="M6376 5925 c-186 -51 -342 -203 -402 -389 -52 -165 -41 -332 32 -483
47 -98 161 -216 251 -262 174 -87 384 -78 558 23 112 66 222 220 259 362 20
78 20 229 0 314 -48 207 -215 384 -409 435 -72 18 -221 18 -289 0z m277 -197
c31 -11 57 -24 57 -28 0 -4 -13 -25 -29 -46 -74 -100 -155 -147 -255 -146 -65
0 -152 28 -196 62 l-25 19 50 51 c110 112 247 142 398 88z m246 -329 c15 -70
1 -169 -33 -244 -36 -78 -122 -166 -199 -201 -54 -25 -73 -29 -152 -28 -77 0
-98 5 -147 28 -143 71 -238 227 -238 393 0 32 4 44 13 40 160 -68 230 -81 343
-67 114 15 192 55 282 147 l77 78 21 -45 c12 -25 27 -70 33 -101z"/>
<path d="M3529 5571 l-29 -29 0 -937 c0 -693 3 -942 12 -958 18 -34 40 -46 81
-47 29 0 45 7 68 29 l29 29 0 947 0 946 -26 24 c-39 36 -96 34 -135 -4z"/>
<path d="M6099 4666 c-71 -20 -186 -85 -219 -123 -60 -68 -25 -162 61 -163 28
0 50 10 94 45 32 24 73 50 93 56 51 17 148 5 215 -26 41 -19 81 -29 135 -32
71 -5 87 -2 183 31 57 20 123 36 144 36 114 -1 209 -107 234 -260 6 -36 11
-180 11 -321 0 -244 1 -258 21 -283 29 -37 98 -37 132 0 22 24 24 36 30 167
11 235 8 426 -8 502 -22 105 -68 190 -144 266 -76 76 -144 107 -251 116 -58 5
-78 1 -171 -31 -57 -20 -124 -36 -147 -36 -23 0 -81 14 -130 31 -102 36 -212
46 -283 25z"/>
<path d="M4781 4144 l-31 -26 0 -234 0 -235 25 -24 c34 -35 93 -34 129 1 l26
27 0 231 c-1 242 -2 251 -47 274 -35 19 -69 14 -102 -14z"/>
<path d="M6785 4145 c-23 -22 -25 -32 -27 -127 -5 -259 1 -361 20 -388 28 -37
102 -41 136 -7 20 21 25 37 31 118 4 52 5 159 4 238 -4 142 -4 143 -32 167
-39 33 -99 33 -132 -1z"/>
<path d="M2545 3350 c-118 -25 -216 -80 -305 -170 -71 -72 -119 -152 -146
-245 -23 -82 -23 -231 0 -310 79 -264 310 -445 571 -445 177 0 395 102 395
185 0 40 -21 73 -57 90 -35 17 -35 17 -127 -30 -74 -37 -105 -47 -162 -52 -78
-6 -151 6 -219 38 -66 31 -153 122 -189 199 -29 60 -31 73 -31 170 0 99 2 110
33 172 38 78 110 149 192 187 48 23 68 26 155 26 112 0 152 -12 236 -70 28
-19 60 -35 71 -35 36 0 76 29 88 64 25 78 -48 154 -200 208 -62 22 -239 33
-305 18z"/>
<path d="M7655 3315 c-23 -23 -25 -31 -25 -130 l0 -105 -49 0 c-83 0 -126 -56
-96 -126 18 -43 51 -64 102 -64 l43 0 0 -228 c0 -257 5 -284 68 -367 53 -70
131 -109 228 -113 71 -4 75 -3 104 26 63 64 28 145 -68 158 -63 8 -106 33
-129 76 -16 29 -18 60 -18 243 l0 210 88 5 c78 4 91 8 108 29 29 36 25 87 -10
122 -28 27 -34 29 -111 29 l-82 0 2 83 c4 119 2 135 -20 157 -30 30 -103 28
-135 -5z"/>
<path d="M3407 3079 c-73 -17 -123 -54 -127 -94 -5 -43 1 -66 20 -85 24 -24
63 -25 137 -4 134 39 243 -13 255 -121 l3 -30 -145 -1 c-168 0 -228 -17 -293
-81 -62 -59 -82 -106 -82 -193 0 -65 4 -82 30 -129 88 -159 307 -210 459 -106
20 14 38 25 40 25 2 0 7 -11 10 -25 7 -27 52 -55 90 -55 14 0 38 11 53 24 l28
24 0 304 0 303 -29 62 c-36 79 -103 143 -179 172 -62 23 -195 28 -270 10z
m283 -561 c0 -37 -6 -47 -49 -89 -37 -36 -61 -49 -98 -58 -108 -23 -196 37
-177 121 11 54 52 68 197 68 l127 0 0 -42z"/>
<path d="M4422 3075 c-46 -14 -95 -48 -142 -98 l-30 -32 0 36 c0 65 -65 110
-124 85 -67 -28 -66 -19 -66 -444 l0 -384 29 -29 c39 -38 80 -39 123 0 l32 28
-3 202 c-1 123 2 222 9 256 24 117 123 193 266 205 67 5 79 9 100 33 34 40 32
90 -5 128 -26 26 -36 29 -88 28 -32 0 -77 -6 -101 -14z"/>
<path d="M4926 3080 c-114 -29 -232 -130 -287 -245 -153 -323 115 -698 463
-648 144 21 258 86 258 146 0 36 -45 85 -84 93 -25 4 -47 -1 -86 -21 -105 -53
-201 -50 -289 8 -38 25 -101 109 -101 134 0 10 52 13 269 13 267 0 270 0 297
23 69 60 26 266 -81 385 -24 27 -71 63 -105 81 -51 27 -75 34 -138 37 -42 2
-94 -1 -116 -6z m127 -181 c21 -5 53 -24 73 -41 33 -29 74 -94 74 -118 0 -6
-68 -10 -200 -10 -110 0 -200 4 -200 8 0 19 61 101 91 125 30 22 82 43 114 46
6 1 27 -4 48 -10z"/>
<path d="M5409 3075 c-32 -17 -54 -66 -45 -101 4 -14 19 -37 33 -50 22 -20 36
-24 93 -24 53 0 73 -4 94 -21 58 -46 61 -59 66 -367 l5 -284 28 -24 c38 -33
79 -31 119 5 l33 29 3 250 c4 282 -5 370 -46 445 -35 65 -99 120 -163 140 -63
21 -184 22 -220 2z"/>
<path d="M6222 3075 c-255 -72 -384 -388 -261 -642 114 -236 380 -317 627
-189 74 38 95 104 48 151 -38 38 -67 40 -133 11 -105 -47 -187 -50 -263 -11
-36 19 -102 94 -117 134 l-11 31 277 0 c264 0 279 1 296 20 67 75 9 312 -101
409 -100 88 -239 121 -362 86z m194 -200 c39 -23 104 -106 104 -133 0 -9 -55
-12 -201 -12 l-200 0 6 23 c11 36 53 95 80 113 74 48 138 51 211 9z"/>
<path d="M6982 3072 c-114 -41 -185 -139 -186 -256 -1 -140 94 -226 286 -262
123 -24 158 -47 158 -107 0 -29 -50 -76 -83 -79 -12 0 -29 -2 -37 -3 -26 -2
-113 21 -160 43 -65 31 -105 28 -142 -8 -26 -27 -30 -36 -25 -67 8 -45 29 -69
90 -99 115 -59 253 -68 368 -25 213 80 243 379 47 475 -29 14 -93 34 -143 44
-110 23 -150 42 -163 80 -30 86 76 128 205 82 75 -26 106 -25 140 4 34 29 39
92 10 124 -58 63 -256 92 -365 54z"/>
</g>
</svg>
